<svg id="Layer_1" data-name="Layer 1" xmlns="http://www.w3.org/2000/svg" xmlns:xlink="http://www.w3.org/1999/xlink" viewBox="0 0 200 65.73"><defs><style>.cls-1{fill:none;}.cls-2{clip-path:url(#clip-path);}.cls-3{fill:url(#linear-gradient);}.cls-4{clip-path:url(#clip-path-2);}.cls-5{clip-path:url(#clip-path-3);}.cls-6{fill:url(#linear-gradient-4);}.cls-7{fill:url(#linear-gradient-5);}</style><clipPath id="clip-path"><path class="cls-1" d="M97.81,30.41h21.66a17.68,17.68,0,0,1,.33,1.9,17.42,17.42,0,0,1,.16,2.21,23.57,23.57,0,0,1-1.35,8.28,19,19,0,0,1-3.93,6.38,20.48,20.48,0,0,1-7.11,4.87,24.36,24.36,0,0,1-9.51,1.75,24.08,24.08,0,0,1-9-1.71,23.28,23.28,0,0,1-7.45-4.76,22,22,0,0,1-5-7.24,22.67,22.67,0,0,1-1.84-9.23,22.71,22.71,0,0,1,1.84-9.23,22.2,22.2,0,0,1,5-7.24A23.43,23.43,0,0,1,89,11.64a24.08,24.08,0,0,1,9-1.72,22.11,22.11,0,0,1,17,7.12l-6.5,6.38A16.15,16.15,0,0,0,104,20.14a14.18,14.18,0,0,0-6-1.14,14,14,0,0,0-5.31,1,13.6,13.6,0,0,0-4.35,2.82,13.08,13.08,0,0,0-3,4.36,14.58,14.58,0,0,0-1.07,5.67,14.59,14.59,0,0,0,1.07,5.68,12.82,12.82,0,0,0,3,4.35,13.64,13.64,0,0,0,4.41,2.82,14.25,14.25,0,0,0,5.4,1,13.08,13.08,0,0,0,9-3,10.92,10.92,0,0,0,1.93-2.3,13.51,13.51,0,0,0,1.44-3H97.81Z"/></clipPath><linearGradient id="linear-gradient" x1="74.69" y1="32.86" x2="200" y2="32.86" gradientUnits="userSpaceOnUse"><stop offset="0" stop-color="#3d4e94"/><stop offset="1" stop-color="#00ace5"/></linearGradient><clipPath id="clip-path-2"><path class="cls-1" d="M165.41,47.71A21.85,21.85,0,0,1,147.8,55.8,23.28,23.28,0,0,1,138.66,54a22.69,22.69,0,0,1-14-21.16,22.6,22.6,0,0,1,14-21.16,23.46,23.46,0,0,1,9.14-1.78,22.14,22.14,0,0,1,9.36,1.84,23.23,23.23,0,0,1,7.2,5.34l-6.68,6.5a15.21,15.21,0,0,0-4.11-3.28A11.67,11.67,0,0,0,147.86,19a14.51,14.51,0,0,0-5.36,1,12.78,12.78,0,0,0-4.33,2.82,13.24,13.24,0,0,0-2.88,4.39,14.76,14.76,0,0,0-1,5.67,14.77,14.77,0,0,0,1,5.68,13.19,13.19,0,0,0,2.88,4.38,12.48,12.48,0,0,0,4.33,2.82,14.31,14.31,0,0,0,5.36,1,12.39,12.39,0,0,0,6.08-1.41,15.57,15.57,0,0,0,4.66-4Z"/></clipPath><clipPath id="clip-path-3"><path class="cls-1" d="M172,10.9h9.57V45.74H200v9.08H172Z"/></clipPath><linearGradient id="linear-gradient-4" x1="0" y1="32.86" x2="33.49" y2="32.86" xlink:href="#linear-gradient"/><linearGradient id="linear-gradient-5" x1="31.1" y1="35.45" x2="63.32" y2="35.45" xlink:href="#linear-gradient"/></defs><g class="cls-2"><rect class="cls-3" x="74.69" y="9.92" width="125.31" height="45.88"/></g><g class="cls-4"><rect class="cls-3" x="74.69" y="9.92" width="125.31" height="45.88"/></g><g class="cls-5"><rect class="cls-3" x="74.69" y="9.92" width="125.31" height="45.88"/></g><path class="cls-6" d="M16.75,0A16.76,16.76,0,0,0,0,16.75V49a16.75,16.75,0,1,0,33.49,0V16.75A16.76,16.76,0,0,0,16.75,0Zm0,5.25a11.51,11.51,0,0,1,11.5,11.5V32.86h-23V16.75A11.51,11.51,0,0,1,16.75,5.25Z"/><path class="cls-7" d="M58.42,13.05a16.78,16.78,0,0,0-22.62-1,20.51,20.51,0,0,1,.54,4.67v2.12l2.11-2.11A11.5,11.5,0,0,1,54.71,33L43.31,44.42l-7-7V49A20.71,20.71,0,0,1,31.1,62.75a16.76,16.76,0,0,0,4.53-3.22L58.42,36.74A16.77,16.77,0,0,0,58.42,13.05Z"/></svg>