<?xml version="1.0" encoding="utf-8"?>
<!-- Generator: Adobe Illustrator 17.0.0, SVG Export Plug-In . SVG Version: 6.00 Build 0)  -->
<!DOCTYPE svg PUBLIC "-//W3C//DTD SVG 1.1//EN" "http://www.w3.org/Graphics/SVG/1.1/DTD/svg11.dtd">
<svg version="1.1" id="Layer_1" xmlns="http://www.w3.org/2000/svg" xmlns:xlink="http://www.w3.org/1999/xlink" x="0px" y="0px"
	 width="184.024px" height="40.914px" viewBox="0 0 184.024 40.914" enable-background="new 0 0 184.024 40.914"
	 xml:space="preserve">
<g>
	<path fill="#FF001C" d="M74.528,28.669c-4.003,0-6.888-0.883-8.536-2.649c-1.766-1.766-2.649-4.651-2.649-8.595v-6.181
		c0-4.003,0.883-6.829,2.649-8.595C67.64,0.883,70.525,0,74.528,0h4.356c0.765,0,1.589,0.059,2.355,0.118
		c0.765,0.059,1.531,0.118,2.355,0.235c0.824,0.059,1.531,0.177,2.237,0.294c0.706,0.118,1.354,0.236,2.06,0.294v5.475
		c0,0.883-0.706,1.531-1.589,1.472c-2.119-0.177-5.828-0.353-7.417-0.353h-3.768c-1.531,0-2.531,0.235-3.002,0.706
		c-0.471,0.53-0.706,1.531-0.706,3.002v6.181c0,1.531,0.235,2.473,0.706,2.943c0.412,0.53,1.413,0.765,3.002,0.765h3.768
		c1.531,0,5.239-0.235,7.417-0.353c0.883-0.059,1.589,0.589,1.589,1.472v5.475c-0.648,0.059-1.354,0.177-2.06,0.294
		c-0.706,0.118-1.413,0.236-2.237,0.294c-0.824,0.059-1.589,0.177-2.355,0.236c-0.765,0.059-1.531,0.118-2.355,0.118H74.528z"/>
	<path fill="#FF001C" d="M0,11.244C0,7.3,0.824,4.415,2.531,2.59C4.297,0.824,7.123,0,11.067,0h5.18c1.06,0,1.943,0.353,2.767,1.06
		c0.412,0.353,0.824,0.765,1.177,1.118c0.353,0.353,0.706,0.706,1.06,1.06V1.766c0-0.765,0.648-1.413,1.413-1.413h5.828V28.61
		h-6.593c-0.765,0-1.413-0.648-1.413-1.413V26.02c-0.059,0.059-0.177,0.177-0.294,0.294c-0.118,0.118-0.235,0.235-0.412,0.353
		c-0.294,0.294-0.648,0.589-1.001,0.824c-0.235,0.118-0.412,0.235-0.648,0.353c-0.235,0.118-0.412,0.177-0.648,0.294
		c-0.471,0.235-0.942,0.294-1.295,0.294h-5.18c-3.944,0-6.77-0.883-8.536-2.59C0.824,24.077,0,21.193,0,17.307V11.244z
		 M19.485,8.654c-0.118-0.059-0.177-0.118-0.294-0.235c-0.824-0.648-1.766-0.942-2.826-0.942h-4.768
		c-1.472,0-2.472,0.294-3.002,0.824c-0.471,0.589-0.706,1.531-0.706,2.943v6.063c0,1.472,0.235,2.472,0.706,2.943
		c0.471,0.471,1.472,0.765,3.002,0.765h4.886c0.942,0,1.884-0.294,2.708-0.883l0.235-0.177c1.06-0.765,1.707-2.002,1.707-3.297
		v-4.768C21.075,10.596,20.486,9.419,19.485,8.654"/>
	<path fill="#FF001C" d="M60.164,17.719c0,4.003-0.824,6.888-2.531,8.771c-1.766,1.766-4.592,2.708-8.536,2.708h-5.18
		c-0.353,0-0.824-0.118-1.295-0.294c-0.235-0.059-0.412-0.177-0.648-0.294c-0.236-0.118-0.412-0.235-0.648-0.353
		c-0.353-0.236-0.706-0.53-1.001-0.824c-0.177-0.118-0.294-0.235-0.412-0.353c-0.118-0.118-0.177-0.177-0.294-0.294v12.48
		c0,0.942-0.706,1.648-1.648,1.648h-6.299V0.412h5.593c0.942,0,1.648,0.765,1.648,1.707v1.236c0.353-0.353,0.706-0.706,1.06-1.06
		c0.353-0.353,0.765-0.765,1.177-1.177C41.973,0.353,42.856,0,43.916,0h5.18c3.944,0,6.77,0.883,8.536,2.708
		c1.707,1.825,2.531,4.768,2.531,8.83V17.719z M41.208,20.604L41.208,20.604c0.765,0.589,1.707,0.883,2.708,0.883h4.592
		c1.472,0,2.473-0.236,3.002-0.765c0.471-0.471,0.706-1.472,0.706-3.002v-6.24c0-1.413-0.235-2.414-0.706-3.002
		c-0.471-0.53-1.472-0.824-3.002-0.824h-4.533c-1.001,0-2.001,0.353-2.826,1.001l-0.118,0.059c-1.118,0.883-1.766,2.237-1.766,3.709
		v4.297C39.324,18.308,40.031,19.721,41.208,20.604"/>
	<path fill="#FF001C" d="M119.386,17.425c0,3.944-0.824,6.829-2.531,8.595c-1.766,1.766-4.592,2.649-8.536,2.649h-6.299
		c-4.003,0-6.829-0.883-8.477-2.649c-1.766-1.766-2.59-4.651-2.59-8.595v-6.181c0-4.003,0.883-6.829,2.59-8.595
		C95.191,0.883,98.016,0,102.019,0h6.299c3.944,0,6.77,0.883,8.536,2.649c1.707,1.825,2.531,4.651,2.531,8.595V17.425z
		 M111.379,11.244c0-1.472-0.235-2.472-0.706-3.002c-0.53-0.471-1.531-0.706-3.002-0.706h-5.18c-1.472,0-2.472,0.235-2.943,0.706
		c-0.471,0.53-0.765,1.531-0.765,3.002v6.181c0,1.531,0.235,2.531,0.765,2.943c0.412,0.53,1.413,0.765,2.943,0.765h5.18
		c1.472,0,2.472-0.235,3.002-0.765c0.471-0.471,0.706-1.472,0.706-2.943V11.244z"/>
	<path fill="#FF001C" d="M136.634,23.43c0-0.471-0.059-0.706-0.236-1.177c-0.294-0.589-0.942-1.06-1.766-1.06
		c-0.706,0-1.295,0.294-1.648,0.648c-0.471,0.471-0.765,1.06-0.883,1.766c-0.059,0.236-0.059,0.412-0.059,0.648
		c0,0.53,0.235,1.177,0.589,1.589c0.353,0.353,0.883,0.589,1.472,0.589c0.648,0,1.177-0.235,1.589-0.589
		c0.294-0.294,0.471-0.589,0.589-0.942h-1.118c-0.177,0.412-0.53,0.589-0.942,0.589c-0.294,0-0.648-0.118-0.824-0.412
		c-0.177-0.294-0.177-0.53-0.177-0.883h3.414c0-0.059,0-0.118,0.059-0.177C136.634,23.842,136.634,23.665,136.634,23.43
		 M135.516,23.194c0,0.059,0,0.059,0,0.118h-2.237c0.118-0.353,0.235-0.648,0.471-0.883c0.177-0.177,0.471-0.294,0.765-0.294
		c0.353,0,0.589,0.118,0.706,0.294C135.457,22.664,135.516,22.959,135.516,23.194 M142.227,21.369h-1.295l-1.766,3.532l-0.589-3.532
		h-1.177l0.942,5.004h1.236L142.227,21.369z M146.818,23.43c0-0.471-0.059-0.706-0.235-1.177c-0.294-0.589-0.942-1.06-1.766-1.06
		c-0.706,0-1.295,0.294-1.648,0.648c-0.471,0.471-0.765,1.06-0.883,1.766c-0.059,0.236-0.059,0.412-0.059,0.648
		c0,0.53,0.235,1.177,0.589,1.589c0.353,0.353,0.883,0.589,1.472,0.589c0.648,0,1.177-0.235,1.589-0.589
		c0.294-0.294,0.471-0.589,0.589-0.942h-1.118c-0.177,0.412-0.53,0.589-0.942,0.589c-0.294,0-0.648-0.118-0.824-0.412
		c-0.177-0.294-0.177-0.53-0.177-0.883h3.414c0-0.059,0-0.118,0.059-0.177C146.76,23.842,146.818,23.665,146.818,23.43
		 M145.7,23.194c0,0.059,0,0.059,0,0.118h-2.237c0.118-0.353,0.235-0.648,0.471-0.883c0.177-0.177,0.471-0.294,0.765-0.294
		c0.353,0,0.589,0.118,0.706,0.294C145.582,22.664,145.7,22.959,145.7,23.194 M151.234,21.369c-0.177-0.059-0.353-0.059-0.53-0.059
		c-0.53,0-1.06,0.177-1.354,0.648V21.31h-1.001l-0.883,5.004h1.177l0.412-2.531c0.118-0.824,0.648-1.354,1.354-1.354
		c0.177,0,0.353,0.059,0.53,0.118L151.234,21.369z M156.767,21.369h-1.295l-1.825,3.591L153,21.369h-1.236l1.06,5.004l-0.412,0.706
		c-0.177,0.294-0.353,0.353-0.589,0.353c-0.235,0-0.589-0.118-0.765-0.235l-0.177,1.001c0.235,0.177,0.706,0.353,1.06,0.353
		c0.412,0,0.706-0.059,0.942-0.294c0.235-0.177,0.412-0.412,0.589-0.706L156.767,21.369z M164.185,21.369h-1.177l-1.295,3.297
		l-0.53-3.238h-0.942l-1.531,3.238l-0.235-3.297h-1.118l0.353,5.004h1.118l1.648-3.414l0.53,3.414h1.06L164.185,21.369z
		 M169.13,22.664c0-0.353-0.059-0.765-0.353-1.001c-0.235-0.236-0.648-0.412-1.118-0.412c-0.471,0-1.001,0.177-1.413,0.589
		l0.412-2.414h-1.177l-1.177,6.947h1.177l0.353-2.119c0.118-0.53,0.236-1.001,0.412-1.236c0.235-0.353,0.589-0.648,0.942-0.648
		c0.471,0,0.648,0.294,0.648,0.648c0,0.118,0,0.177,0,0.294l-0.53,3.061h1.177l0.53-3.179
		C169.13,23.018,169.13,22.841,169.13,22.664 M174.663,23.43c0-0.471-0.059-0.706-0.235-1.177c-0.294-0.589-0.942-1.06-1.766-1.06
		c-0.706,0-1.295,0.294-1.648,0.648c-0.471,0.471-0.765,1.06-0.883,1.766c-0.059,0.236-0.059,0.412-0.059,0.648
		c0,0.53,0.177,1.177,0.589,1.589c0.353,0.353,0.883,0.589,1.472,0.589c0.648,0,1.177-0.235,1.589-0.589
		c0.294-0.294,0.471-0.589,0.589-0.942h-1.118c-0.177,0.412-0.53,0.589-0.942,0.589c-0.294,0-0.648-0.118-0.824-0.412
		c-0.177-0.294-0.177-0.53-0.177-0.883h3.414c0-0.059,0-0.118,0.059-0.177C174.663,23.842,174.663,23.665,174.663,23.43
		 M173.545,23.194c0,0.059,0,0.059,0,0.118h-2.237c0.118-0.353,0.235-0.648,0.471-0.883c0.177-0.177,0.471-0.294,0.765-0.294
		c0.353,0,0.589,0.118,0.706,0.294C173.486,22.664,173.545,22.959,173.545,23.194 M179.079,21.369
		c-0.177-0.059-0.353-0.059-0.53-0.059c-0.53,0-1.06,0.177-1.354,0.648V21.31h-1.001l-0.883,5.004h1.177l0.412-2.531
		c0.118-0.824,0.648-1.354,1.354-1.354c0.177,0,0.353,0.059,0.53,0.118L179.079,21.369z M183.965,23.43
		c0-0.471-0.059-0.706-0.235-1.177c-0.294-0.589-0.942-1.06-1.766-1.06c-0.706,0-1.295,0.294-1.648,0.648
		c-0.471,0.471-0.765,1.06-0.883,1.766c-0.059,0.236-0.059,0.412-0.059,0.648c0,0.53,0.236,1.177,0.589,1.589
		c0.353,0.353,0.883,0.589,1.472,0.589c0.648,0,1.177-0.235,1.589-0.589c0.294-0.294,0.471-0.589,0.589-0.942h-1.118
		c-0.177,0.412-0.53,0.589-0.942,0.589c-0.294,0-0.648-0.118-0.824-0.412c-0.177-0.294-0.177-0.53-0.177-0.883h3.414
		c0-0.059,0-0.118,0.059-0.177C183.965,23.842,183.965,23.665,183.965,23.43 M182.846,23.194c0,0.059,0,0.059,0,0.118h-2.237
		c0.118-0.353,0.235-0.648,0.471-0.883c0.177-0.177,0.471-0.294,0.765-0.294c0.353,0,0.589,0.118,0.706,0.294
		C182.787,22.664,182.846,22.959,182.846,23.194"/>
	<path fill="#FF001C" d="M134.397,8.242h-1.295l-0.236,1.236h1.295L134.397,8.242z M134.044,10.184h-1.177l-0.883,5.004h1.177
		L134.044,10.184z M139.46,11.479c0-0.353-0.059-0.765-0.353-1.001c-0.235-0.236-0.648-0.412-1.118-0.412
		c-0.53,0-1.118,0.235-1.531,0.706v-0.589h-0.942l-0.883,5.004h1.177l0.353-2.119c0.118-0.53,0.235-1.001,0.412-1.236
		c0.177-0.353,0.589-0.648,0.942-0.648c0.471,0,0.648,0.294,0.648,0.648c0,0.118,0,0.177,0,0.294l-0.53,3.061h1.177l0.53-3.179
		C139.46,11.833,139.46,11.656,139.46,11.479 M145.111,11.479c0-0.353-0.059-0.765-0.353-1.001
		c-0.235-0.236-0.648-0.412-1.119-0.412c-0.53,0-1.118,0.235-1.531,0.706v-0.589h-0.942l-0.883,5.004h1.177l0.353-2.119
		c0.118-0.53,0.235-1.001,0.412-1.236c0.235-0.353,0.589-0.648,0.942-0.648c0.471,0,0.648,0.294,0.648,0.648
		c0,0.118,0,0.177,0,0.294l-0.53,3.061h1.177l0.53-3.179C145.052,11.833,145.111,11.656,145.111,11.479 M150.586,12.245
		c0-0.648-0.177-1.236-0.648-1.648c-0.412-0.353-0.942-0.53-1.413-0.53c-0.648,0-1.236,0.294-1.589,0.648
		c-0.648,0.648-0.883,1.589-0.883,2.473c0,0.648,0.177,1.177,0.648,1.648c0.412,0.353,0.883,0.53,1.413,0.53
		c0.648,0,1.236-0.294,1.648-0.648C150.351,14.07,150.586,13.128,150.586,12.245 M149.409,12.186c0,0.589-0.118,1.413-0.589,1.825
		c-0.177,0.118-0.412,0.294-0.706,0.294s-0.589-0.118-0.765-0.412c-0.118-0.177-0.177-0.412-0.177-0.706
		c0-0.589,0.118-1.413,0.589-1.825c0.177-0.118,0.412-0.294,0.706-0.294c0.294,0,0.589,0.118,0.765,0.412
		C149.35,11.715,149.409,11.95,149.409,12.186 M156.179,10.184h-1.295l-1.766,3.532l-0.589-3.532h-1.177l0.942,5.004h1.236
		L156.179,10.184z M161.124,10.184h-1.001l-0.235,0.53c-0.177-0.412-0.706-0.706-1.354-0.706c-0.589,0-1.06,0.235-1.472,0.648
		c-0.589,0.589-0.883,1.648-0.883,2.473c0,0.589,0.177,1.177,0.53,1.589c0.353,0.353,0.765,0.53,1.236,0.53
		c0.471,0,1.001-0.235,1.295-0.706v0.589h0.942L161.124,10.184z M159.652,12.186c0,0.589-0.177,1.295-0.589,1.766
		c-0.177,0.177-0.412,0.353-0.706,0.353c-0.648,0-0.942-0.53-0.942-1.119c0-0.589,0.177-1.354,0.589-1.766
		c0.177-0.177,0.412-0.353,0.765-0.353C159.357,11.067,159.652,11.597,159.652,12.186z M165.362,10.184h-1.236l0.294-1.648
		l-1.236,0.353l-0.235,1.236h-0.883l-0.177,1.06h0.883l-0.412,2.296c0,0.177-0.059,0.353-0.059,0.53
		c0,0.412,0.118,0.706,0.353,1.001c0.235,0.235,0.53,0.353,0.942,0.353c0.353,0,0.706-0.059,1.001-0.235l0.177-1.06
		c-0.235,0.059-0.471,0.177-0.765,0.177c-0.353,0-0.53-0.177-0.53-0.471c0-0.059,0-0.118,0-0.118l0.412-2.414h1.236L165.362,10.184z
		 M168.07,8.242h-1.295l-0.235,1.236h1.295L168.07,8.242z M167.717,10.184h-1.177l-0.883,5.004h1.177L167.717,10.184z
		 M172.956,12.245c0-0.648-0.177-1.236-0.648-1.648c-0.412-0.353-0.942-0.53-1.413-0.53c-0.648,0-1.236,0.294-1.589,0.648
		c-0.648,0.648-0.883,1.589-0.883,2.473c0,0.648,0.177,1.177,0.648,1.648c0.412,0.353,0.883,0.53,1.413,0.53
		c0.648,0,1.236-0.294,1.648-0.648C172.721,14.07,172.956,13.128,172.956,12.245 M171.779,12.186c0,0.589-0.118,1.413-0.589,1.825
		c-0.177,0.118-0.412,0.294-0.706,0.294c-0.294,0-0.589-0.118-0.765-0.412c-0.118-0.177-0.177-0.412-0.177-0.706
		c0-0.589,0.118-1.413,0.589-1.825c0.177-0.118,0.412-0.294,0.706-0.294c0.294,0,0.589,0.118,0.765,0.412
		C171.72,11.715,171.779,11.95,171.779,12.186 M178.49,11.479c0-0.353-0.059-0.765-0.353-1.001
		c-0.235-0.236-0.648-0.412-1.119-0.412c-0.53,0-1.118,0.235-1.531,0.706v-0.589h-0.942l-0.883,5.004h1.177l0.353-2.119
		c0.118-0.53,0.235-1.001,0.412-1.236c0.177-0.353,0.589-0.648,0.942-0.648c0.471,0,0.648,0.294,0.648,0.648
		c0,0.118,0,0.177,0,0.294l-0.53,3.061h1.177l0.53-3.179C178.49,11.833,178.49,11.656,178.49,11.479"/>
</g>
</svg>
